<svg version="1.2" xmlns="http://www.w3.org/2000/svg" viewBox="0 0 1000 700" width="1000" height="700">
	<title>15050841_5549029-ai</title>
	<style>
		tspan { white-space:pre } 
		.s0 { fill: #fcf0ff } 
		.s1 { fill: #ccace5 } 
		.s2 { fill: none;stroke: #ac86d1;stroke-linecap: round;stroke-linejoin: round;stroke-width: 2 } 
		.s3 { fill: none;stroke: #ccace5;stroke-linecap: round;stroke-linejoin: round;stroke-width: 2 } 
		.s4 { fill: #f2d7f7 } 
		.s5 { fill: #b6a5f5 } 
		.s6 { fill: #5849a2 } 
		.s7 { fill: #47307b } 
		.s8 { fill: #868ecf } 
		.s9 { fill: #ff9f38 } 
		.s10 { fill: #ffffff } 
	</style>
	<g id="OBJECTS">
		<g id="&lt;Group&gt;">
			<path id="&lt;Path&gt;" class="s0" d="m921.2 208.8v458.8h-695.7c-19.1-8.4-37.6-18-55.4-29-37-22.9-71.2-53-88.1-92.4-17-39.5-13.3-89.3 17.4-119.8 18.3-18.3 45.1-29.1 57.6-51.6 13.2-23.5 6.8-52.7-3.5-77.5-10.3-24.7-24.4-48.8-26.4-75.5-3.8-51.3 47.7-99.4 100-93.5 41.8 4.8 78.1 37.7 120.1 34.8 28-1.9 52.3-19.7 71.2-39.8 19-20.1 34.6-43.4 55.3-61.8 36.2-31.9 87.5-46.8 135.6-39.3 48.1 7.5 92.1 37.3 116.2 78.7 20.9 35.9 32.3 84.2 72.3 97.6 31.7 10.7 67.2-7.2 100 0.2 8.6 2 16.4 5.5 23.4 10.1z"/>
			<g id="&lt;Group&gt;">
				<g id="&lt;Group&gt;">
					<g id="&lt;Group&gt;">
						<path id="&lt;Path&gt;" class="s1" d="m564.7 582c32.8 1.5 66-8.4 92.6-27.6 26.6-19.1 46.5-47.5 55.5-79-37.4 6.4-76.4 13.8-105.8 37.7-20.6 16.8-32.4 44.2-42.3 68.9z"/>
						<g id="&lt;Group&gt;">
							<path id="&lt;Path&gt;" class="s2" d="m709.1 479.2q-69.7 52-141.7 100.7"/>
							<path id="&lt;Path&gt;" class="s2" d="m700.2 501.7q-11.9 1.5-24 1.8"/>
							<path id="&lt;Path&gt;" class="s2" d="m674.1 485q-6 13.7-10.7 27.8"/>
							<path id="&lt;Path&gt;" class="s2" d="m678.9 528.3c-10.9-0.1-21.7-1.2-32.4-3.2"/>
							<path id="&lt;Path&gt;" class="s2" d="m642.6 496c-5 12.6-8.7 25.7-10.9 39.1"/>
							<path id="&lt;Path&gt;" class="s2" d="m651.9 552.5c-12-1.1-24-3.1-35.7-6"/>
							<path id="&lt;Path&gt;" class="s2" d="m611.6 514.7c-5.7 13.6-9.6 28-11.6 42.6"/>
							<path id="&lt;Path&gt;" class="s2" d="m616.9 568.4c-8.8-0.6-17.5-1.9-26.1-4.1"/>
						</g>
					</g>
					<g id="&lt;Group&gt;">
						<path id="&lt;Path&gt;" class="s2" d="m128.9 314.4c59.8 63.4 102.2 142.9 121.6 227.9"/>
						<g id="&lt;Group&gt;">
							<path id="&lt;Path&gt;" class="s1" d="m155.6 345.2c-18.6-3.1-35.1-16-46.5-30.9-11.4-15-18.3-32.8-23.3-50.9 10.2 7.5 21.4 13.5 32.3 20 10.9 6.4 21.5 13.8 29.3 23.8 7.8 10 10.4 25.5 8.2 38z"/>
							<path id="&lt;Path&gt;" class="s2" d="m92.8 272.6c21 24.4 41.8 48.1 62.8 72.6"/>
						</g>
						<g id="&lt;Group&gt;">
							<path id="&lt;Path&gt;" class="s1" d="m182.5 382c-9.1-11.2-12.1-27-11-41.4 1.1-14.3 6.2-28 12.6-40.9 2 9.5 5.3 18.5 8.3 27.8 2.9 9.3 5.3 18.9 4.7 28.6-0.6 9.7-7 19.9-14.6 25.9z"/>
							<path id="&lt;Path&gt;" class="s2" d="m183.4 308.5c-0.4 24.7-0.6 48.8-0.9 73.5"/>
						</g>
						<g id="&lt;Group&gt;">
							<path id="&lt;Path&gt;" class="s1" d="m214 437.2c-7.8-12.1-9.1-28.1-6.5-42.3 2.6-14.1 9.2-27.2 16.9-39.4 1 9.7 3.3 19.1 5.3 28.6 1.9 9.5 3.2 19.4 1.6 28.9-1.7 9.6-9.1 19-17.3 24.2z"/>
							<path id="&lt;Path&gt;" class="s2" d="m222.8 364.2c-3.1 24.5-5.8 48.5-8.8 73"/>
						</g>
						<g id="&lt;Group&gt;">
							<path id="&lt;Path&gt;" class="s1" d="m193.7 401.3c-6.2-13-19.3-22.4-32.7-27.5-13.4-5.1-28.1-6.3-42.4-6 7.7 5.8 14.5 12.7 21.6 19.3 7.2 6.6 14.9 12.8 23.9 16.4 9.1 3.6 21 2.2 29.6-2.2z"/>
							<path id="&lt;Path&gt;" class="s2" d="m126.8 370.9c22.5 10.1 44.4 20.2 66.9 30.4"/>
						</g>
						<g id="&lt;Group&gt;">
							<path id="&lt;Path&gt;" class="s1" d="m224.8 463.5c-6.3-12.9-19.3-22.3-32.7-27.4-13.5-5.2-28.1-6.4-42.5-6.1 7.8 5.8 14.6 12.7 21.7 19.3 7.1 6.7 14.8 12.9 23.9 16.5 9 3.5 20.9 2.1 29.6-2.3z"/>
							<path id="&lt;Path&gt;" class="s2" d="m157.9 433.1c22.5 10.2 44.4 20.3 66.9 30.4"/>
						</g>
					</g>
					<g id="&lt;Group&gt;">
						<path id="&lt;Path&gt;" class="s3" d="m468.9 415c-44.7 51.1-75.4 114.3-88 181.1"/>
						<g id="&lt;Group&gt;">
							<path id="&lt;Path&gt;" class="s4" d="m449 439.7c14.4-2.9 26.9-13.4 35.3-25.4 8.5-12 13.3-26.1 16.7-40.3-7.7 6.1-16.2 11.1-24.6 16.5-8.3 5.4-16.3 11.4-22.1 19.4-5.8 8.1-7.4 20.2-5.3 29.8z"/>
							<path id="&lt;Path&gt;" class="s3" d="m495.8 381.3c-15.6 19.7-31.1 38.8-46.8 58.4"/>
						</g>
						<g id="&lt;Group&gt;">
							<path id="&lt;Path&gt;" class="s4" d="m429.2 469.2c6.7-9 8.5-21.4 7.3-32.5-1.3-11.2-5.7-21.7-11-31.6-1.3 7.5-3.6 14.7-5.7 21.9-2 7.3-3.5 14.9-2.8 22.5 0.8 7.5 6 15.2 12.2 19.7z"/>
							<path id="&lt;Path&gt;" class="s3" d="m426.3 412c1 19.2 1.8 38 2.9 57.2"/>
						</g>
						<g id="&lt;Group&gt;">
							<path id="&lt;Path&gt;" class="s4" d="m406.2 513.1c5.8-9.6 6.3-22.1 3.8-33.1-2.4-10.9-8-20.9-14.3-30.2-0.5 7.6-2 15-3.3 22.4-1.2 7.5-1.9 15.2-0.4 22.6 1.6 7.4 7.7 14.6 14.2 18.3z"/>
							<path id="&lt;Path&gt;" class="s3" d="m397.2 456.6c3.1 18.9 6 37.5 9 56.5"/>
						</g>
						<g id="&lt;Group&gt;">
							<path id="&lt;Path&gt;" class="s4" d="m420.9 484.6c4.5-10.3 14.4-18 24.7-22.4 10.4-4.4 21.7-5.7 32.9-5.9-5.8 4.7-10.9 10.3-16.3 15.7-5.3 5.3-11.2 10.4-18.1 13.4-7 3.1-16.3 2.3-23.2-0.8z"/>
							<path id="&lt;Path&gt;" class="s3" d="m472.2 458.9c-17.3 8.6-34 17.1-51.3 25.7"/>
						</g>
						<g id="&lt;Group&gt;">
							<path id="&lt;Path&gt;" class="s4" d="m398.6 534c4.5-10.3 14.4-18 24.7-22.4 10.3-4.4 21.7-5.7 32.9-5.9-5.9 4.7-11 10.3-16.4 15.7-5.3 5.3-11.2 10.4-18.1 13.4-6.9 3.1-16.3 2.3-23.1-0.8z"/>
							<path id="&lt;Path&gt;" class="s3" d="m449.8 508.3c-17.2 8.6-34 17.1-51.2 25.7"/>
						</g>
					</g>
					<g id="&lt;Group&gt;">
						<path id="&lt;Path&gt;" class="s4" d="m204.5 469.5c4.5 10 7.1 21.6 6.8 32.6-6.6-12.4-13.4-25-22.4-35.9-9-10.9-20.5-20-34.1-23.9 7 8.5 12.3 18.6 14.7 29.3-24.1-28.4-60.3-45.5-97.6-45.6 2.3 35.7 21.6 70 50.5 91-8 1.7-16.4 0.5-23.7-3 10.9 24.4 34.1 43.1 60.4 48.3-8 2.2-16.8 2.8-25.1 1.7 11.9 16.1 30.7 26.1 50.3 29.9 19.6 3.9 39.9 2.2 59.5-1.6 4.4-21.7 3.8-44.2-2.9-65.3-6.8-21.1-20.2-42.4-36.4-57.5z"/>
						<g id="&lt;Group&gt;">
							<path id="&lt;Path&gt;" class="s3" d="m74 428.1c54.6 54.6 110.7 107.7 168.2 159.3"/>
							<path id="&lt;Path&gt;" class="s3" d="m81.6 458c8 1.3 16.2 2 24.3 2.1"/>
							<path id="&lt;Path&gt;" class="s3" d="m107.7 494.7c12.5 2.3 25.3 3.3 38 3.1"/>
							<path id="&lt;Path&gt;" class="s3" d="m119.3 536.3c22.1 3.4 44.6 3.3 66.6-0.4"/>
							<path id="&lt;Path&gt;" class="s3" d="m155.8 574.4c22.8 1.6 45.9 0.6 68.5-2.9"/>
							<path id="&lt;Path&gt;" class="s3" d="m205.5 502.7c3.4 18.5 5.1 37.2 5.2 56"/>
							<path id="&lt;Path&gt;" class="s3" d="m172.3 473.6c1.7 15.9 1.4 32.1-0.9 48"/>
							<path id="&lt;Path&gt;" class="s3" d="m123.5 448.6c3.4 11.1 5.7 22.4 6 33.9"/>
						</g>
					</g>
					<g id="&lt;Group&gt;">
						<path id="&lt;Path&gt;" class="s4" d="m541.5 528.4c-4.4 5.1-10.1 9.6-16.1 12.3 5-6.9 10.2-13.9 13.8-21.7 3.6-7.8 5.6-16.5 4.1-24.9-2.8 6-6.9 11.5-12.2 15.7 9.3-20.7 9.2-45-0.5-65.5-19 10.6-32.7 30.2-36.7 51.6-3-4-4.6-8.9-4.5-13.9-10.6 12.5-14.7 30.1-10.7 45.8-3.3-3.8-5.9-8.5-7.5-13.2-5.8 10.6-6.3 23.6-3.3 35.4 3 11.7 9.3 22.4 16.5 32.1 13.1-3.2 25.2-9.4 35-18.7 9.8-9.2 18-22.2 22.1-35z"/>
						<g id="&lt;Group&gt;">
							<path id="&lt;Path&gt;" class="s3" d="m530 446c-15.6 44.3-30.1 88.9-43.3 134"/>
							<path id="&lt;Path&gt;" class="s3" d="m515.6 458q2.1 7.2 5.2 13.9"/>
							<path id="&lt;Path&gt;" class="s3" d="m502.3 481.9c2 7.5 4.8 14.8 8.2 21.7"/>
							<path id="&lt;Path&gt;" class="s3" d="m482.5 499.2c3.9 13 9.9 25.3 17.7 36.4"/>
							<path id="&lt;Path&gt;" class="s3" d="m471.2 529.2c5.1 12.9 11.7 25.3 19.5 36.8"/>
							<path id="&lt;Path&gt;" class="s3" d="m523.5 537.7c-9.2 6.7-19 12.5-29.3 17.5"/>
							<path id="&lt;Path&gt;" class="s3" d="m530.8 511.8c-8.3 5.1-17.3 9.2-26.6 12.1"/>
							<path id="&lt;Path&gt;" class="s3" d="m531.7 478.6c-5.2 4.7-10.8 8.9-17 12.1"/>
						</g>
					</g>
				</g>
				<g id="&lt;Group&gt;">
					<g id="&lt;Group&gt;">
						<g id="&lt;Group&gt;">
							<path id="&lt;Path&gt;" class="s5" d="m842.3 427v169.3h-120.2v-169.3z"/>
							<path id="&lt;Compound Path&gt;" fill-rule="evenodd" class="s6" d="m829.1 445.6v132.1h-93.9v-132.1zm-85.3 109.3v16.8h76.8v-16.8zm0-25.3v16.8h76.8v-16.8zm0-25.4v16.8h76.9v-16.8zm0-25.3v16.8h76.8v-16.8zm0-25.4v16.8h76.8v-16.8z"/>
						</g>
						<g id="&lt;Group&gt;">
							<path id="&lt;Path&gt;" class="s6" d="m829.1 406.6v5.2c0 8.4-6.8 15.2-15.2 15.2h-32.2c-8.4 0-15.1-6.8-15.1-15.2v-5.2z"/>
							<path id="&lt;Path&gt;" class="s7" d="m829.1 406.6v5.2c0 8.4-6.8 15.2-15.2 15.2h-5c1.7-1 3.2-2.2 4.4-3.7 2.1-2.6 3.1-6 3.4-9.4 0.2-2.4 0.2-4.9-0.1-7.3z"/>
						</g>
						<path id="&lt;Path&gt;" class="s7" d="m751 427h-7.4v-44.5c0-14.5 11.8-26.2 26.2-26.2h3.7c14.5 0 26.2 11.7 26.2 26.2h-7.4c0-10.4-8.4-18.8-18.8-18.8h-3.7c-10.3 0-18.8 8.4-18.8 18.8z"/>
					</g>
					<g id="&lt;Group&gt;">
						<g id="&lt;Group&gt;">
							<path id="&lt;Path&gt;" class="s5" d="m390 347.2v249.1h-155.1v-249.1z"/>
							<g id="&lt;Group&gt;">
								<g id="&lt;Group&gt;">
									<path id="&lt;Compound Path&gt;" fill-rule="evenodd" class="s7" d="m372 408.3h-120.9c-0.3 0-0.6-0.3-0.6-0.7v-45.7c0-0.3 0.3-0.6 0.6-0.6h120.9c0.4 0 0.6 0.3 0.6 0.6v45.7c0 0.4-0.2 0.7-0.6 0.7zm-120.3-45.8v44.5h119.7v-44.5z"/>
									<path id="&lt;Path&gt;" class="s7" d="m329.1 368.2h-35.1c-0.4 0-0.6-0.3-0.6-0.6 0-0.4 0.2-0.6 0.6-0.6h35.1c0.4 0 0.7 0.2 0.7 0.6 0 0.3-0.3 0.6-0.7 0.6z"/>
								</g>
								<g id="&lt;Group&gt;">
									<path id="&lt;Compound Path&gt;" fill-rule="evenodd" class="s7" d="m372 466.3h-120.9c-0.3 0-0.6-0.3-0.6-0.6v-45.8c0-0.3 0.3-0.6 0.6-0.6h120.9c0.4 0 0.6 0.3 0.6 0.6v45.8c0 0.3-0.2 0.6-0.6 0.6zm-120.3-45.8v44.5h119.7v-44.5z"/>
									<path id="&lt;Path&gt;" class="s7" d="m329.1 426.2h-35.1c-0.4 0-0.6-0.3-0.6-0.6 0-0.3 0.2-0.6 0.6-0.6h35.1c0.4 0 0.7 0.3 0.7 0.6 0 0.3-0.3 0.6-0.7 0.6z"/>
								</g>
								<g id="&lt;Group&gt;">
									<path id="&lt;Compound Path&gt;" fill-rule="evenodd" class="s7" d="m372 524.3h-120.9c-0.3 0-0.6-0.3-0.6-0.6v-45.8c0-0.3 0.3-0.6 0.6-0.6h120.9c0.4 0 0.6 0.3 0.6 0.6v45.8c0 0.3-0.2 0.6-0.6 0.6zm-120.3-45.7v44.5h119.7v-44.5z"/>
									<path id="&lt;Path&gt;" class="s7" d="m329.1 484.2h-35.1c-0.4 0-0.6-0.2-0.6-0.6 0-0.3 0.2-0.6 0.6-0.6h35.1c0.4 0 0.7 0.3 0.7 0.6 0 0.4-0.3 0.6-0.7 0.6z"/>
								</g>
								<g id="&lt;Group&gt;">
									<path id="&lt;Compound Path&gt;" fill-rule="evenodd" class="s7" d="m372 582.3h-120.9c-0.3 0-0.6-0.3-0.6-0.6v-45.7c0-0.4 0.3-0.7 0.6-0.7h120.9c0.4 0 0.6 0.3 0.6 0.7v45.7c0 0.3-0.2 0.6-0.6 0.6zm-120.3-45.7v44.5h119.7v-44.5z"/>
									<path id="&lt;Path&gt;" class="s7" d="m329.1 542.3h-35.1c-0.4 0-0.6-0.3-0.6-0.7 0-0.3 0.2-0.6 0.6-0.6h35.1c0.4 0 0.7 0.3 0.7 0.6 0 0.4-0.3 0.7-0.7 0.7z"/>
								</g>
							</g>
						</g>
						<g id="&lt;Group&gt;">
							<path id="&lt;Path&gt;" class="s8" d="m379.9 341v6.2h-136.6v-6.2z"/>
							<path id="&lt;Path&gt;" class="s9" d="m370.3 331.9v9.1h-11.6v-9.1z"/>
							<g id="&lt;Group&gt;">
								<path id="&lt;Path&gt;" class="s9" d="m280.2 322.9v18.1h-23.2v-18.1z"/>
								<path id="&lt;Path&gt;" class="s8" d="m282.5 315.6v8.3h-27.8v-8.3z"/>
							</g>
							<g id="&lt;Group&gt;">
								<path id="&lt;Path&gt;" class="s5" d="m347.3 328.6v12.4h-42.8v-12.4z"/>
								<path id="&lt;Path&gt;" class="s7" d="m350.1 322.3v7.1h-48.4v-7.1z"/>
							</g>
						</g>
					</g>
					<g id="&lt;Group&gt;">
						<path id="&lt;Path&gt;" class="s7" d="m398.8 87.3v185.8h-218.4v-185.8z"/>
						<path id="&lt;Path&gt;" class="s10" d="m333.6 129.3c-5.4-6.3-14-9.1-22.2-9.2-8.3-0.1-14.7 0.9-22.6 3.1-8-2.2-14.4-3.2-22.6-3.1-8.3 0.1-16.9 2.9-22.3 9.2-7.2 8.3-7.2 20.8-4.3 31.4 2.8 10.7 8 20.7 10 31.5 1.7 9.3 0.9 18.9 2.6 28.1 1.7 9.3 6.7 18.8 15.6 21.9 2.1 0.8 4.6 1 6.3-0.4 1.3-1.1 1.7-3 1.5-4.8-0.2-1.7-0.9-3.3-1.6-5-3-7.4-4-15.9-1.6-23.6 2.4-7.6 8.5-14.1 16.4-16 7.8 1.9 13.9 8.4 16.3 16 2.4 7.7 1.4 16.2-1.6 23.6-0.6 1.7-1.4 3.3-1.6 5-0.2 1.8 0.2 3.7 1.6 4.8 1.6 1.4 4.2 1.2 6.2 0.4 8.9-3.1 13.9-12.6 15.6-21.9 1.7-9.2 1-18.8 2.6-28.1 2-10.8 7.2-20.8 10-31.5 2.9-10.6 2.9-23.1-4.3-31.4z"/>
						<g id="&lt;Group&gt;" style="opacity: .3">
							<path id="&lt;Path&gt;" class="s10" d="m355.5 87.3l-175.1 175.1v-56l119.1-119.1z"/>
							<path id="&lt;Path&gt;" class="s10" d="m398.8 87.3v1l-184.8 184.8h-28l185.8-185.8z"/>
							<path id="&lt;Path&gt;" class="s10" d="m398.8 176v14l-83.1 83.1h-14z"/>
						</g>
						<path id="&lt;Compound Path&gt;" fill-rule="evenodd" class="s5" d="m398.8 276.8h-218.4c-2.1 0-3.8-1.6-3.8-3.7v-185.8c0-2.1 1.7-3.8 3.8-3.8h218.4c2.1 0 3.8 1.7 3.8 3.8v185.8c0 2.1-1.7 3.7-3.8 3.7zm-214.7-185.8v178.4h211v-178.4z"/>
					</g>
					<g id="&lt;Group&gt;">
						<g id="&lt;Group&gt;">
							<path id="&lt;Path&gt;" class="s8" d="m444.3 596.3h-1.9c-2.5 0-4.6-2-4.6-4.6v-438.1c0-2.6 2.1-4.6 4.6-4.6h1.9c2.5 0 4.6 2 4.6 4.6v438.1c0 2.6-2.1 4.6-4.6 4.6z"/>
							<g id="&lt;Group&gt;">
								<path id="&lt;Path&gt;" class="s8" d="m479.4 111.8l1.4 1.3c1.9 1.7 2.1 4.6 0.4 6.5l-34.3 38.9c-1.7 1.9-4.6 2-6.5 0.4l-1.4-1.3c-1.9-1.7-2.1-4.5-0.4-6.4l34.3-39c1.7-1.9 4.6-2 6.5-0.4z"/>
								<path id="&lt;Path&gt;" class="s10" d="m443.3 156.5c-1.4 0-2.6-1.2-2.6-2.7 0-1.4 1.2-2.6 2.6-2.6 1.5 0 2.7 1.2 2.7 2.6 0 1.5-1.2 2.7-2.7 2.7z"/>
								<path id="&lt;Path&gt;" class="s10" d="m476.2 119.5c-1.5 0-2.7-1.2-2.7-2.6 0-1.5 1.2-2.7 2.7-2.7 1.4 0 2.6 1.2 2.6 2.7 0 1.4-1.2 2.6-2.6 2.6z"/>
							</g>
							<g id="&lt;Group&gt;">
								<path id="&lt;Path&gt;" class="s8" d="m470.2 116.1l0.5-1.8c0.7-2.4 3.3-3.8 5.7-3.1l49.9 14.2c2.5 0.7 3.9 3.2 3.2 5.6l-0.5 1.9c-0.7 2.4-3.3 3.8-5.7 3.1l-49.9-14.2c-2.5-0.7-3.9-3.2-3.2-5.7z"/>
								<path id="&lt;Path&gt;" class="s10" d="m522.5 128.2c1.3-0.7 2.9-0.1 3.6 1.2 0.6 1.3 0 2.9-1.3 3.5-1.3 0.7-2.9 0.1-3.5-1.2-0.7-1.3-0.1-2.9 1.2-3.5z"/>
								<path id="&lt;Path&gt;" class="s10" d="m475 114.5c1.3-0.6 2.9-0.1 3.6 1.2 0.6 1.4 0 2.9-1.3 3.6-1.3 0.6-2.9 0-3.5-1.3-0.7-1.3-0.1-2.9 1.2-3.5z"/>
							</g>
							<g id="&lt;Group&gt;">
								<path id="&lt;Path&gt;" class="s8" d="m519.2 126.6l1.4-1.2c2-1.6 4.9-1.4 6.5 0.6l33.2 39.8c1.6 2 1.4 4.9-0.6 6.5l-1.4 1.2c-2 1.6-4.8 1.4-6.5-0.6l-33.2-39.9c-1.6-1.9-1.4-4.8 0.6-6.4z"/>
								<path id="&lt;Path&gt;" class="s10" d="m555.2 171.3c-1.5 0-2.7-1.2-2.7-2.7 0-1.5 1.2-2.6 2.7-2.6 1.5 0 2.6 1.1 2.6 2.6 0 1.5-1.1 2.7-2.6 2.7z"/>
								<path id="&lt;Path&gt;" class="s10" d="m523.7 133.2c-1.5 0-2.7-1.2-2.7-2.6 0-1.5 1.2-2.7 2.7-2.7 1.4 0 2.6 1.2 2.6 2.7 0 1.4-1.2 2.6-2.6 2.6z"/>
							</g>
						</g>
						<g id="&lt;Group&gt;">
							<path id="&lt;Path&gt;" class="s9" d="m593.3 190.1c4.1 4.6 2.5 12.5-3.5 17.8-6 5.3-14.1 5.8-18.1 1.3-4-4.6-2.5-12.6 3.5-17.8 6-5.3 14.1-5.9 18.1-1.3z"/>
							<g id="&lt;Group&gt;">
								<path id="&lt;Path&gt;" class="s6" d="m621.8 165l-78.6 69.3-8.6-48.4q2.1-17.9 12.2-26.8 10.1-8.8 28.1-8.7z"/>
								<path id="&lt;Path&gt;" class="s7" d="m621.8 165l-11.8 10.4-41.1-19.7q-15-2.8-22.1 3.4 10.1-8.8 28.1-8.7z"/>
							</g>
						</g>
					</g>
					<g id="&lt;Group&gt;">
						<g id="&lt;Group&gt;">
							<path id="&lt;Path&gt;" class="s5" d="m670.5 439.8l-124.2 104.5-46.7-2.9 123.8-105.7z"/>
							<path id="&lt;Path&gt;" class="s7" d="m555.1 570.6h-71.8v-12.3c0-15.5 12.6-28.1 28.1-28.1h15.6c15.5 0 28.1 12.6 28.1 28.1z"/>
							<path id="&lt;Path&gt;" class="s7" d="m548.3 388.5v13.8c0 16.8 12.7 30.8 29.4 32.3l84.8 8.1c19.1 1.8 35.5-13.2 35.5-32.3v-19.2z"/>
						</g>
						<g id="&lt;Group&gt;">
							<path id="&lt;Path&gt;" class="s6" d="m686.4 584.5h-247.2v-4.8c0-9.6 7.8-17.4 17.5-17.4h212.2c9.7 0 17.5 7.8 17.5 17.4z"/>
							<path id="&lt;Path&gt;" class="s7" d="m751.2 596.3h-365.1l20-14.2h325.1z"/>
						</g>
						<g id="&lt;Group&gt;">
							<path id="&lt;Path&gt;" class="s7" d="m683 384.1h-144.1v-16.1c0-6.4 5.1-11.5 11.4-11.5h121.3c6.3 0 11.4 5.1 11.4 11.5z"/>
							<path id="&lt;Path&gt;" class="s7" d="m786.2 215.8l-74.2 138.9-15.7-8.2c-4.8-2.6-6.7-8.5-4.1-13.4l65-121.4c2.5-4.8 8.5-6.7 13.3-4.2z"/>
							<path id="&lt;Path&gt;" class="s7" d="m413.9 497.5h-77.9c-2.8 0-5.2-2.3-5.2-5.2 0-2.9 2.4-5.2 5.2-5.2h77.9c2.9 0 5.2 2.3 5.2 5.2 0 2.9-2.3 5.2-5.2 5.2z"/>
							<g id="&lt;Group&gt;">
								<path id="&lt;Path&gt;" class="s6" d="m413.9 506.2c-3.5 0-7-1.4-9.7-4.1-5.5-5.4-5.5-14.1-0.1-19.6l109-109.5c2.6-2.6 6.1-4.1 9.8-4.1h166.9l92.1-170.8c3.7-6.8 12.1-9.3 18.8-5.6 6.7 3.6 9.2 12 5.6 18.7l-96.1 178.1c-2.4 4.5-7.1 7.3-12.2 7.3h-169.3l-105 105.5c-2.7 2.7-6.2 4.1-9.8 4.1z"/>
								<path id="&lt;Path&gt;" class="s10" d="m696.7 389.1c-4.3 0-7.7-3.4-7.7-7.7 0-4.2 3.4-7.7 7.7-7.7 4.3 0 7.7 3.5 7.7 7.7 0 4.3-3.4 7.7-7.7 7.7z"/>
								<path id="&lt;Path&gt;" class="s10" d="m523.4 391.8c-4.3 0-7.7-3.4-7.7-7.7 0-4.2 3.4-7.7 7.7-7.7 4.2 0 7.7 3.5 7.7 7.7 0 4.3-3.5 7.7-7.7 7.7z"/>
								<path id="&lt;Path&gt;" class="s10" d="m413.9 500c-4.2 0-7.7-3.4-7.7-7.7 0-4.3 3.5-7.7 7.7-7.7 4.3 0 7.7 3.4 7.7 7.7 0 4.3-3.4 7.7-7.7 7.7z"/>
							</g>
						</g>
						<g id="&lt;Group&gt;">
							<path id="&lt;Path&gt;" class="s5" d="m661.7 329.7h-101.6c-2.8 0-5-2.3-5-5.1v-2.8c0-2.8 2.2-5 5-5h101.6c2.8 0 5.1 2.2 5.1 5v2.8c0 2.8-2.3 5.1-5.1 5.1z"/>
							<path id="&lt;Path&gt;" class="s5" d="m644.8 381.1v-52.8c0-2.8 2.2-5.1 5-5.1h2.8c2.8 0 5.1 2.3 5.1 5.1v52.8c0 2.8-2.3 5.1-5.1 5.1h-2.8c-2.8 0-5-2.3-5-5.1z"/>
							<path id="&lt;Path&gt;" class="s10" d="m651.2 383c-1.8 0-3.3-1.5-3.3-3.3 0-1.8 1.5-3.3 3.3-3.3 1.8 0 3.3 1.5 3.3 3.3 0 1.8-1.5 3.3-3.3 3.3z"/>
						</g>
					</g>
				</g>
			</g>
		</g>
	</g>
</svg>