<?xml version="1.0" standalone="no"?>
<!DOCTYPE svg PUBLIC "-//W3C//DTD SVG 20010904//EN"
 "http://www.w3.org/TR/2001/REC-SVG-20010904/DTD/svg10.dtd">
<svg version="1.0" xmlns="http://www.w3.org/2000/svg"
 width="470.000000pt" height="531.000000pt" viewBox="0 0 470.000000 531.000000"
 preserveAspectRatio="xMidYMid meet">

<g transform="translate(0.000000,531.000000) scale(0.100000,-0.100000)"
fill="#000000" stroke="none">
<path d="M2504 4467 c-2 -7 0 -26 6 -42 19 -49 32 -285 20 -359 -18 -115 -68
-293 -101 -358 -38 -77 -134 -227 -188 -295 -14 -18 -44 -55 -66 -83 -22 -29
-62 -77 -90 -107 -27 -31 -57 -66 -65 -78 -8 -12 -44 -57 -80 -100 -36 -42
-90 -107 -121 -143 -30 -37 -83 -112 -118 -167 -71 -112 -195 -363 -206 -415
-4 -19 -17 -55 -28 -80 -33 -72 -47 -163 -54 -342 -4 -116 -2 -186 7 -230 23
-118 11 -188 -34 -188 -29 0 -118 30 -176 60 -143 73 -382 111 -472 76 -24 -9
-54 -25 -68 -35 -20 -16 -22 -21 -11 -35 7 -9 28 -16 45 -16 39 0 77 -27 178
-126 81 -79 108 -120 147 -219 51 -127 166 -352 207 -405 153 -194 459 -360
719 -390 119 -13 654 -25 728 -16 42 6 68 16 100 40 51 39 53 65 13 151 -17
37 -28 83 -32 129 -3 39 -12 115 -21 169 -15 101 -14 143 9 262 10 54 18 72
35 81 14 6 126 13 289 17 306 7 322 11 360 85 21 40 22 46 9 88 -14 47 -10 76
19 132 9 17 16 55 16 86 0 30 5 58 10 61 6 4 8 16 4 27 -12 37 7 83 55 137 80
88 77 141 -11 234 -33 34 -72 80 -88 102 -15 22 -46 59 -69 82 -48 48 -50 60
-15 168 21 66 27 113 35 263 11 207 2 333 -30 403 -11 24 -25 66 -32 94 -9 34
-29 68 -65 110 -28 34 -55 72 -59 84 -4 13 -13 21 -23 19 -13 -2 -18 -18 -23
-68 -9 -109 -49 -278 -84 -359 -115 -265 -158 -333 -293 -463 -354 -342 -409
-408 -472 -573 l-35 -90 3 -365 4 -364 24 -42 c13 -22 24 -53 24 -68 0 -17 11
-37 29 -54 24 -23 105 -137 160 -226 18 -29 8 -56 -21 -56 -58 0 -235 163
-349 320 -36 51 -99 168 -114 215 -8 22 -25 69 -40 104 -23 55 -28 82 -32 200
-10 261 20 350 214 628 22 32 157 174 298 314 281 278 337 342 415 469 107
175 109 185 111 601 l1 305 -52 107 c-67 139 -181 293 -323 438 -93 96 -124
118 -133 96z"/>
</g>
</svg>
