<?xml version="1.0" encoding="UTF-8"?>
<svg xmlns="http://www.w3.org/2000/svg" viewBox="0 0 64 64" width="512" height="512"><g id="_5-restaurant" data-name="5-restaurant"><path d="M6.074,50a1,1,0,0,0,.835-1.549A30.045,30.045,0,0,1,4.757,19.42a1,1,0,1,0-1.815-.84,32.046,32.046,0,0,0,2.3,30.969A1,1,0,0,0,6.074,50Z"/><path d="M48.451,57.091a30.02,30.02,0,0,1-32.9,0,1,1,0,1,0-1.1,1.672,32.022,32.022,0,0,0,35.1,0,1,1,0,0,0-1.1-1.672Z"/><path d="M57.378,49.836a1,1,0,0,0,1.385-.287,32.066,32.066,0,0,0,3.173-28.881,1,1,0,0,0-1.872.709,30.055,30.055,0,0,1-2.973,27.074A1,1,0,0,0,57.378,49.836Z"/><path d="M15.113,7a1,1,0,0,0,.545-.163A30.067,30.067,0,0,1,42.646,3.943a1,1,0,1,0,.708-1.87A32.063,32.063,0,0,0,14.566,5.162,1,1,0,0,0,15.113,7Z"/><path d="M9.761,26.023a1,1,0,0,0-1.193.761,24.1,24.1,0,0,0,2.35,16.7A1,1,0,0,0,11.8,44a.987.987,0,0,0,.477-.122,1,1,0,0,0,.4-1.357,22.092,22.092,0,0,1-2.153-15.3A1,1,0,0,0,9.761,26.023Z"/><path d="M19.766,51.506a1,1,0,0,0,.374,1.364,24.031,24.031,0,0,0,23.72,0,1,1,0,1,0-.99-1.738,22.027,22.027,0,0,1-21.74,0A1,1,0,0,0,19.766,51.506Z"/><path d="M51.505,44.234a1,1,0,0,0,1.364-.374A24.007,24.007,0,0,0,56,32a24.33,24.33,0,0,0-.361-4.172,1,1,0,0,0-1.971.344,22.081,22.081,0,0,1-2.537,14.7A1,1,0,0,0,51.505,44.234Z"/><path d="M20.521,10.918a1,1,0,0,0,.958,1.756,22.286,22.286,0,0,1,14.348-2.342,1,1,0,0,0,.346-1.97A24.287,24.287,0,0,0,20.521,10.918Z"/><path d="M38.949,33.293a1,1,0,0,0-1.414,1.414L44.029,41.2l-2.7,2.7-2.85-3.989a1,1,0,0,0-1.185-.348l-7.07,2.829a1,1,0,1,0,.742,1.857l6.342-2.537,3.08,4.311a.982.982,0,0,0,.106.126l16.97,16.97a3,3,0,0,0,4.243,0l1.414-1.414a3,3,0,0,0,0-4.243Zm22.758,27-1.414,1.414a1.023,1.023,0,0,1-1.414,0L42.615,45.444l2.828-2.829L61.707,58.878A1,1,0,0,1,61.707,60.293Z"/><path d="M8.674,22.816,20.565,34.707a1,1,0,0,0,1.414-1.414L10.129,21.445c-.1-.116-9.88-11.3-4.244-18.388L29.293,26.464a1,1,0,0,0,1.414-1.414L6.553.9A1,1,0,0,0,5.139.9c-3.5,3.5-3.968,8.438-1.356,14.285A32.765,32.765,0,0,0,8.674,22.816Z"/><path d="M12.293,13.293a1,1,0,0,0,0,1.414l9,9a1,1,0,0,0,1.414-1.414l-9-9A1,1,0,0,0,12.293,13.293Z"/><path d="M24.293,25.293a1,1,0,0,0,0,1.414l1,1a1,1,0,0,0,1.414-1.414l-1-1A1,1,0,0,0,24.293,25.293Z"/><path d="M52.4,27.159,63.711,15.7a1,1,0,0,0-.042-1.446L62.272,13a3.073,3.073,0,0,0-4.222.02l-9.9,9.9a.978.978,0,0,1-.717.265,1.027,1.027,0,0,1-.7-.265,1.066,1.066,0,0,1-.006-1.408l9.971-9.8A1,1,0,0,0,57,11V8a1,1,0,0,0-1-1H53a1,1,0,0,0-.713.3l-9.793,9.965a1.068,1.068,0,0,1-1.414,0,1.022,1.022,0,0,1-.265-.7.987.987,0,0,1,.265-.717l9.9-9.9a2.993,2.993,0,0,0,.035-4.2L49.742.331A1,1,0,0,0,48.3.289L36.835,11.607c-.059.059-5.663,5.792-2.4,12.3L.877,57.466a3,3,0,0,0,0,4.242l1.415,1.414a3,3,0,0,0,4.242,0L40.093,29.563C46.606,32.831,52.334,27.223,52.4,27.159ZM5.121,61.707a1,1,0,0,1-1.414,0L2.293,60.293a1,1,0,0,1,0-1.415L18.556,42.615l2.829,2.829ZM39.21,27.619,22.8,44.03,19.971,41.2,36.382,24.79a1,1,0,0,0,.152-1.219c-3.242-5.44,1.515-10.346,1.713-10.546L48.958,2.447l.606.674a1,1,0,0,1,0,1.415l-9.9,9.9a2.961,2.961,0,0,0-.852,2.167,3.026,3.026,0,0,0,.852,2.076,3.08,3.08,0,0,0,4.248-.006L53.419,9H55v1.581l-9.678,9.511a3.078,3.078,0,0,0,0,4.242,3.023,3.023,0,0,0,2.076.851,2.894,2.894,0,0,0,2.166-.851l9.9-9.9a1.023,1.023,0,0,1,1.413,0l.038.037.636.571L50.98,25.749c-.05.05-5.087,4.974-10.551,1.718A1,1,0,0,0,39.21,27.619Z"/></g></svg>
