<svg clip-rule="evenodd" fill-rule="evenodd" height="1.707in" image-rendering="optimizeQuality" shape-rendering="geometricPrecision" text-rendering="geometricPrecision" viewBox="0 0 1707 1707" width="1.707in" xmlns="http://www.w3.org/2000/svg"><g id="Layer_x0020_1"><path d="m255 596h-22v21c1 16-12 29-28 29-17 0-29-13-29-29v-21h-22c-16 0-29-13-29-29s13-29 29-29h22v-22c0-16 12-29 29-29 16 0 28 13 28 29v22h22c16 0 29 13 29 29s-13 29-29 29zm1240 1099h-257-743-256c-16 0-29-13-29-29v-261c0-159 130-289 289-289h119l29-113c-101-51-171-157-171-278v-69c-60-105-76-216-47-322 31-108 106-200 213-259 78-42 154-63 231-63 105 0 192 38 268 71 55 25 102 45 143 45 23 0 43-7 62-22 8-6 19-7 28-4 10 4 17 12 19 23 1 9 35 232-136 334v266c0 121-69 227-170 278l28 113h119c160 0 290 130 290 289v261c0 16-13 29-29 29zm-866-521h-130c-127 0-231 104-231 231v232h198v-130c0-16 13-29 29-29s29 13 29 29v130h685v-130c0-16 13-29 29-29s29 13 29 29v130h199v-232c0-127-104-231-232-231h-129l-218 217c-5 6-13 9-20 9-8 0-15-3-21-9zm44-38 194 194 194-194-29-111c-27 8-56 12-86 12h-158c-30 0-59-4-87-12zm17-177c1 1 3 1 4 2 29 12 61 18 94 18h158c33 0 64-6 93-18 2-1 3-1 5-2 91-38 156-129 156-234v-268c-58-39-110-58-160-58-73 0-137 40-214 92-68 45-121 46-164 46-55 0-85 1-128 116v72c0 105 64 196 156 234zm177-50c-88 0-159-62-159-139 0-16 13-29 29-29s29 13 29 29c0 45 45 81 101 81s101-36 101-81c0-16 13-29 29-29s29 13 29 29c0 77-72 139-159 139zm-86-231c-16 0-29-13-29-29 0-8-11-16-27-16-15 0-27 8-27 16 0 16-13 29-29 29s-29-13-29-29c0-41 38-74 85-74s85 33 85 74c0 16-13 29-29 29zm284 0c-16 0-29-13-29-29 0-8-12-16-28-16-15 0-27 8-27 16 0 16-13 29-29 29s-29-13-29-29c0-41 38-74 85-74s86 33 86 74c0 16-13 29-29 29zm-816-281c-8 0-15-3-21-8-84-85-172-172-172-266 0-61 50-111 111-111 39 0 64 15 82 36 18-21 43-36 82-36 61 0 110 50 110 111 0 94-87 181-172 266-5 5-13 8-20 8zm-82-327c-29 0-53 24-53 53 0 63 66 134 135 204 69-70 134-141 134-204 0-29-23-53-52-53-23 0-37 7-56 45-5 10-15 16-26 16s-21-6-26-16c-20-38-33-45-56-45zm124 966c-7 0-15-3-21-9-58-59-119-119-119-187 0-47 38-85 84-85 25 0 43 9 56 21 13-12 31-21 56-21 46 0 84 38 84 85 0 67-61 128-120 187-5 6-13 9-20 9zm-56-223c-14 0-26 12-26 27 0 38 39 82 82 125 43-43 82-87 82-125 0-15-12-27-26-27-12 0-18 1-30 26-5 10-15 16-26 16s-21-6-26-16c-12-25-19-26-30-26zm1242 12c-8 0-15-2-21-8-75-75-153-153-153-238 0-55 46-101 101-101 34 0 56 13 73 31 16-18 38-31 72-31 56 0 101 46 101 101 0 85-77 163-153 238-5 6-13 8-20 8zm-73-289c-23 0-43 20-43 43 0 55 56 116 116 176 60-60 115-121 115-176 0-23-19-43-43-43-19 0-30 5-46 38-5 10-15 16-26 16-11 0-21-6-26-16-17-33-27-38-47-38zm-712 864h-128c-16 0-29-13-29-29s13-29 29-29h128c16 0 29 13 29 29s-13 29-29 29zm181-1330c-67 0-134 18-203 56-93 51-159 130-185 224-20 74-14 153 18 229 46-91 94-100 158-100 39 0 79-1 133-36 82-56 157-102 246-102 61 0 124 22 190 67 95-59 109-170 108-231-17 6-35 9-54 9-53 0-108-24-167-50-71-31-151-66-244-66zm698 241c-16 0-29-13-29-29v-22h-21c-16 0-29-12-29-28s13-29 29-29h21v-22c0-16 13-29 29-29s29 13 29 29v22h21c16 0 29 13 29 29s-13 28-29 28h-21v22c0 16-13 29-29 29zm-115 778c-16 0-29-13-29-29v-22h-21c-16 0-29-13-29-29s13-28 29-28h21v-22c0-16 13-29 29-29s29 13 29 29v22h22c16 0 29 12 29 28s-13 29-29 29h-22v22c0 16-13 29-29 29z"/></g></svg>