<svg id="Layer_1" viewBox="0 0 128 128" xmlns="http://www.w3.org/2000/svg" data-name="Layer 1"><path d="m7.1004 38.989a2.07618 2.07618 0 0 0 .87091.19006 2 2 0 1 0 -1.81219-2.86169h.01074a2.00443 2.00443 0 0 0 .93054 2.67163z"/><path d="m18.14069 25.17249a1.99294 1.99294 0 1 0 -1.53168.71033 2.00882 2.00882 0 0 0 1.53168-.71033z"/><path d="m1.03436 51.86456a1.99567 1.99567 0 0 0 1.58148 2.34144 1.71416 1.71416 0 0 0 .38025.04 2.00374 2.00374 0 1 0 -1.96173-2.38147z"/><path d="m12.95532 28.574a2.00162 2.00162 0 1 0 .59039 2.7713 2.00538 2.00538 0 0 0 -.59039-2.7713z"/><path d="m3.09674 43.921v.01025a2.00181 2.00181 0 0 0 3.80326 1.25051 2.00341 2.00341 0 0 0 -3.80326-1.26076z"/><path d="m6.249 91.8631a2.01608 2.01608 0 0 0 1.80245 1.1309 1.9141 1.9141 0 0 0 .87091-.20032 2.00041 2.00041 0 1 0 -2.67336-.93058z"/><path d="m4.428 81.73877a1.998 1.998 0 1 0 2.53162 1.26038 2.0013 2.0013 0 0 0 -2.53162-1.26038z"/><path d="m13.06573 99.57715a1.99527 1.99527 0 1 0 -1.10156.32971 2.02344 2.02344 0 0 0 1.10156-.32971z"/><path d="m.00409 59.99872a1.98947 1.98947 0 0 0 1.87183 2.12061.59946.59946 0 0 0 .13.01025 2.00282 2.00282 0 1 0 -2.00183-2.13086z"/><path d="m1.88568 66.07135a2.00293 2.00293 0 0 0 .13 4.00183h.13a2.00513 2.00513 0 1 0 -.26-4.00183z"/><path d="m2.65594 73.98517a2.00453 2.00453 0 0 0 .38019 3.97156 2.60882 2.60882 0 0 0 .38123-.04 2.00229 2.00229 0 0 0 -.76141-3.93152z"/><path d="m73.70081 4.73285a1.97371 1.97371 0 1 0 -.32062-.02c.11047.01023.21014.02.32062.02z"/><path d="m88.92456 9.20514a2.00691 2.00691 0 1 0 -.81128-.17 2.11119 2.11119 0 0 0 .81128.17z"/><path d="m81.44806 6.47388a2.002 2.002 0 1 0 -.5611-.08014 1.85184 1.85184 0 0 0 .5611.08014z"/><path d="m65.83331.00067.0033.00043.00647-.00043z"/><path d="m16.72925 106.25995a2.00051 2.00051 0 1 0 -1.52191-.70007 2.01578 2.01578 0 0 0 1.52191.70007z"/><path d="m101.26581 16.96851a1.96948 1.96948 0 0 0 1.24133.43036 1.99556 1.99556 0 1 0 -1.2511-.43036z"/><path d="m95.97095 12.86652a2.00288 2.00288 0 1 0 -1.03119-.29022 1.96435 1.96435 0 0 0 1.03119.29022z"/><path d="m35.116 11.0556a1.94125 1.94125 0 0 0 .93054-.2301 2.00063 2.00063 0 1 0 -.93054.2301z"/><path d="m63.78162 1.94153a2.00778 2.00778 0 0 0 1.9422 2.061h.05963a2.001 2.001 0 0 0 .05316-4.00143 1.98881 1.98881 0 0 0 -2.05499 1.94043z"/><path d="m23.48535 19.63965a2.0137 2.0137 0 1 0 -1.35181.52026 2.01567 2.01567 0 0 0 1.35181-.52026z"/><path d="m26.69824 14.3374a1.98631 1.98631 0 0 0 1.64111.85046 1.95016 1.95016 0 0 0 1.14065-.36047 2.0001 2.0001 0 1 0 -2.30188-3.27155h.01074a1.98335 1.98335 0 0 0 -.49062 2.78156z"/><path d="m42.38239 7.8241a1.86629 1.86629 0 0 0 .69006-.12994 1.98307 1.98307 0 1 0 -.69006.12994z"/><path d="m49.98889 5.54327a1.72851 1.72851 0 0 0 .45056-.0498 2.00127 2.00127 0 0 0 -.89045-3.90222h-.01074a2.00148 2.00148 0 0 0 .45062 3.952z"/><path d="m58.03619 4.26288a2.00308 2.00308 0 1 0 -.20038.00977c.07038-.00001.13099-.00977.20038-.00977z"/><path d="m118.02124 96.43555a1.99994 1.99994 0 0 0 .99017-3.742 2.00056 2.00056 0 0 0 -1.97156 3.48163 1.94769 1.94769 0 0 0 .98139.26037z"/><path d="m103.89807 114.05359a2.00417 2.00417 0 1 0 -2.81311-.32 1.97719 1.97719 0 0 0 1.562.75037 2.02008 2.02008 0 0 0 1.25111-.43037z"/><path d="m96.14105 119.03589a1.9424 1.9424 0 0 0 1.03119-.29022 1.99576 1.99576 0 1 0 -1.03119.29022z"/><path d="m109.9231 105.69959a2.01613 2.01613 0 0 0 -2.83264.05035 2.00085 2.00085 0 0 0 1.44171 3.39117 1.96233 1.96233 0 0 0 1.431-.61011 2.004 2.004 0 0 0 -.04007-2.83141z"/><path d="m89.10437 122.71777a1.97613 1.97613 0 0 0 .81128-.17 2.01344 2.01344 0 1 0 -.81128.17z"/><path d="m81.6377 125.46906a1.87323 1.87323 0 0 0 .5708-.08014 2.00385 2.00385 0 1 0 -2.48273-1.35071 1.98749 1.98749 0 0 0 1.91193 1.43085z"/><path d="m112.486 102.69818a2.00213 2.00213 0 1 0 -.40076-2.80109 1.98335 1.98335 0 0 0 .40076 2.80109z"/><path d="m125.9884 61.79938a1.99841 1.99841 0 0 0 -1.992 2.00092v.20026a2.0018 2.0018 0 0 0 4.0036 0v-.21a2.00115 2.00115 0 0 0 -2.0116-1.99118z"/><path d="m125.748 69.94324a1.99612 1.99612 0 0 0 -2.23254 1.73083h-.00977a2.00478 2.00478 0 0 0 1.74182 2.24078 2.05719 2.05719 0 0 0 .25024.02 2.0041 2.0041 0 0 0 .25024-3.99164z"/><path d="m73.89044 127.23987a1.81985 1.81985 0 0 0 .32056-.03027 1.96846 1.96846 0 1 0 -.32056.03027z"/><path d="m119.62231 86.52075a2.008 2.008 0 0 0 1.11133 2.61108 1.95451 1.95451 0 0 0 .75067.1402 2.00058 2.00058 0 1 0 -1.862-2.75128z"/><path d="m124.49683 77.797a2.01182 2.01182 0 0 0 -2.45239 1.42059v.00977a2.00316 2.00316 0 0 0 1.431 2.4411 2.2216 2.2216 0 0 0 .51117.06006 2.00666 2.00666 0 0 0 1.94122-1.49042h-.00983a1.99572 1.99572 0 0 0 -1.42117-2.4411z"/><path d="m23.75513 111.30231a2.00159 2.00159 0 1 0 -2.83264.1402 1.96948 1.96948 0 0 0 1.34106.52026 1.999 1.999 0 0 0 1.49158-.66046z"/><path d="m109.80286 22.16083a2.005 2.005 0 1 0 -1.4007.57062 1.9949 1.9949 0 0 0 1.4007-.57062z"/><path d="m50.18927 126.49927a2.00343 2.00343 0 1 0 -.44086-.0498 1.6562 1.6562 0 0 0 .44086.0498z"/><path d="m42.56219 124.24823a1.99812 1.99812 0 1 0 -.69006-.12018 2.04349 2.04349 0 0 0 .69006.12018z"/><path d="m66.04346 128a2.002 2.002 0 1 0 -.13-4.00189 2.00155 2.00155 0 0 0 .0606 4.00189z"/><path d="m30.131 116.0545a2.00289 2.00289 0 1 0 -2.7926.50024 2.00529 2.00529 0 0 0 2.7926-.50024z"/><path d="m35.28607 121.0368a1.9808 1.9808 0 0 0 1.77118-1.08057 1.99881 1.99881 0 1 0 -2.7027.85046 2.10165 2.10165 0 0 0 .93152.23011z"/><path d="m58.03619 127.74988a2.00779 2.00779 0 1 0 -.18964-.00977 1.29891 1.29891 0 0 0 .18964.00977z"/><path d="m125.46741 57.86737a2.31376 2.31376 0 0 0 .26-.00977 2.05878 2.05878 0 1 0 -.26.00977z"/><path d="m113.57678 28.764a2.00107 2.00107 0 1 0 -1.60107-.80017 1.993 1.993 0 0 0 1.60107.80017z"/><path d="m123.42554 46.14221a2.00235 2.00235 0 0 0 -1.431 2.441v.00979a2.009 2.009 0 0 0 1.94122 1.48065 2.22715 2.22715 0 0 0 .51117-.05957 2.00218 2.00218 0 0 0 -1.02142-3.87189z"/><path d="m120.6535 38.68854a1.99847 1.99847 0 0 0 .75067 3.85187 1.845 1.845 0 0 0 .76044-.15 1.99923 1.99923 0 0 0 -1.51111-3.7019z"/><path d="m116.95 31.66528a1.991 1.991 0 0 0 -.76044 2.72144 2.012 2.012 0 0 0 1.74078 1.02051 2.06293 2.06293 0 0 0 .99115-.26038 2.00051 2.00051 0 0 0 -1.9715-3.48157z"/><path d="m63.942 120.02655a56.026 56.026 0 1 0 -56.05078-56.026 56.10165 56.10165 0 0 0 56.05078 56.026zm0-108.05011a52.02414 52.02414 0 1 1 -52.04722 52.02411 52.09464 52.09464 0 0 1 52.04722-52.02411z"/><path d="m87.36328 49.07843a83.31987 83.31987 0 0 1 17.33142 14.9231c-4.27539 4.89392-21.0777 22.56518-40.7527 22.56518a37.30091 37.30091 0 0 1 -11.99268-2.09l-3.15452 3.15311a42.51852 42.51852 0 0 0 15.1472 2.93872c24.6405 0 44.12592-24.29346 44.94305-25.32764a1.99992 1.99992 0 0 0 0-2.48065 84.21222 84.21222 0 0 0 -18.58146-16.62085z"/><path d="m18.99884 65.24091a84.21891 84.21891 0 0 0 18.58142 16.62085l2.94037-2.939a83.318 83.318 0 0 1 -17.33142-14.92319c4.27533-4.89386 21.0777-22.56512 40.75275-22.56512a37.3012 37.3012 0 0 1 11.99268 2.09l3.15448-3.15308a42.51856 42.51856 0 0 0 -15.14712-2.93881c-24.6405 0-44.12592 24.29352-44.94312 25.3277a2.00009 2.00009 0 0 0 -.00004 2.48065z"/><path d="m63.942 73.56067a9.61984 9.61984 0 0 1 -1.01617-.05554l-3.33173 3.3302a13.5327 13.5327 0 0 0 17.18825-17.18073l-3.3316 3.3302a9.54746 9.54746 0 0 1 -9.50875 10.57587z"/><path d="m63.942 54.44049a9.61984 9.61984 0 0 1 1.01617.05554l3.33167-3.3302a13.53266 13.53266 0 0 0 -17.18834 17.18067l3.33167-3.33014a9.54746 9.54746 0 0 1 9.50883-10.57587z"/><path d="m31.49847 96.42969a2.00178 2.00178 0 0 0 2.83069 0l62.05628-62.02881a2.00115 2.00115 0 1 0 -2.83069-2.82941l-62.05628 62.02875a1.99957 1.99957 0 0 0 0 2.82947z"/></svg>