<?xml version="1.0" encoding="utf-8"?>
<!-- Generator: Adobe Illustrator 27.5.0, SVG Export Plug-In . SVG Version: 6.00 Build 0)  -->
<svg version="1.1" id="_xB9_Ã_xBC_h_x5F_1" xmlns="http://www.w3.org/2000/svg" xmlns:xlink="http://www.w3.org/1999/xlink"
	 x="0px" y="0px" viewBox="0 0 5425.222 2677.664" style="enable-background:new 0 0 5425.222 2677.664;" xml:space="preserve">
<g id="c">
	<g>
		<defs>
			<rect id="SVGID_1_" x="0" y="10.268" width="5425.222" height="2663.43"/>
		</defs>
		<clipPath id="SVGID_00000045614833849813990520000016110379755690866618_">
			<use xlink:href="#SVGID_1_"  style="overflow:visible;"/>
		</clipPath>
		<g style="clip-path:url(#SVGID_00000045614833849813990520000016110379755690866618_);">
			<path style="fill:#F9B4B4;" d="M-216.754,1095.103c27.035,26.046,1845.037-485.611,2870.764-485.611
				s2910.044,582.446,2910.044,582.446v1825.795H-216.754C-216.754,3017.733-216.754,1095.103-216.754,1095.103z"/>
			<path style="fill:#E29C9C;" d="M-216.754,1906.213c27.035,26.046,1845.037-485.611,2870.764-485.611
				s2910.044,582.446,2910.044,582.446v1825.795H-216.754V1906.213z"/>
			<g>
				<path style="fill:#FFFFFF;stroke:#231815;stroke-width:15.941;stroke-linecap:round;stroke-linejoin:round;" d="
					M-424.762,635.538c101.937-52.252,302.47-119.845,594.922-61.361c57.886,11.505,101.778,59.283,107.98,118.247
					c23.377,219.396,101.46,657.229-199.42,773.878c-273.368,105.943-631.816,71.747-587.448-701.491
					C-505.548,709.682-473.584,660.626-424.762,635.538z"/>
				<path style="fill:#FFFFFF;stroke:#231815;stroke-width:15.941;stroke-linecap:round;stroke-linejoin:round;" d="
					M1162.332,327.777c101.937-52.252,302.47-119.845,594.922-61.361c57.886,11.505,101.777,59.283,107.979,118.247
					c23.377,219.396,101.46,657.229-199.42,773.878c-273.368,105.943-631.816,71.747-587.448-701.491
					C1081.546,401.921,1113.51,352.864,1162.332,327.777z"/>
				<path style="fill:#FFFFFF;stroke:#231815;stroke-width:15.941;stroke-linecap:round;stroke-linejoin:round;" d="
					M1962.717,214.484c101.937-52.252,302.47-119.845,594.922-61.361c57.886,11.505,101.778,59.283,107.979,118.247
					c23.377,219.396,101.46,657.229-199.42,773.878c-273.368,105.943-631.816,71.747-587.448-701.491
					C1881.931,288.628,1913.896,239.571,1962.717,214.484z"/>
				<path style="fill:#FFFFFF;stroke:#231815;stroke-width:15.941;stroke-linecap:round;stroke-linejoin:round;" d="M379.758,456.25
					c101.937-52.252,288.635-147.809,581.086-89.324c57.886,11.505,101.778,59.283,107.98,118.247
					c23.377,219.396,115.295,685.193-185.585,801.842c-273.368,105.943-631.816,71.747-587.447-701.492
					C298.972,530.394,330.936,481.338,379.758,456.25z"/>
			</g>
			<g>
				<path style="fill:#FFFFFF;stroke:#231815;stroke-width:15.941;stroke-linecap:round;stroke-linejoin:round;" d="
					M5786.532,663.342c-101.937-52.252-302.47-119.845-594.921-61.36c-57.886,11.505-101.778,59.283-107.98,118.247
					c-23.377,219.396-101.459,657.229,199.42,773.878c273.369,105.943,631.816,71.747,587.448-701.492
					C5867.318,737.486,5835.354,688.43,5786.532,663.342z"/>
				<path style="fill:#FFFFFF;stroke:#231815;stroke-width:15.941;stroke-linecap:round;stroke-linejoin:round;" d="
					M4199.438,350.148c-101.937-52.252-302.47-119.845-594.922-61.361c-57.886,11.505-101.778,59.283-107.98,118.247
					c-23.377,219.396-101.46,657.229,199.42,773.878c273.368,105.943,631.816,71.747,587.447-701.491
					C4280.224,424.292,4248.26,375.235,4199.438,350.148z"/>
				<path style="fill:#FFFFFF;stroke:#231815;stroke-width:15.941;stroke-linecap:round;stroke-linejoin:round;" d="
					M3399.053,236.855c-101.937-52.252-302.47-119.845-594.922-61.361c-57.886,11.505-101.778,59.283-107.98,118.247
					c-23.377,219.396-101.459,657.229,199.42,773.878c273.368,105.943,631.816,71.747,587.448-701.492
					C3479.839,310.998,3447.875,261.942,3399.053,236.855z"/>
				<path style="fill:#FFFFFF;stroke:#231815;stroke-width:15.941;stroke-linecap:round;stroke-linejoin:round;" d="
					M4982.012,478.621c-101.937-52.252-288.635-147.809-581.086-89.324c-57.886,11.505-101.778,59.283-107.98,118.247
					c-23.377,219.396-115.295,685.193,185.585,801.842c273.368,105.943,631.816,71.747,587.447-701.492
					C5062.798,552.765,5030.833,503.709,4982.012,478.621z"/>
			</g>
			<path style="fill:#C6706D;stroke:#231815;stroke-width:21.3609;stroke-miterlimit:10;" d="M-396.615,1982.913
				c0,0,1928.685-985.763,2944.87-635.018c0,0,1663.268-442.467,2969.679,500.632l205.782-34.196v2731.342
				c0,0-6390.2,255.35-6390.2,0C-666.484,4290.325-396.615,1982.913-396.615,1982.913z"/>
			
				<line style="fill:none;stroke:#231815;stroke-width:53.4023;stroke-linecap:round;stroke-miterlimit:10;" x1="2620.455" y1="2061.052" x2="2620.455" y2="3047.774"/>
			<path style="fill:#EAEAEA;stroke:#231815;stroke-width:10.6805;stroke-linecap:round;stroke-linejoin:round;" d="
				M2181.539,470.632h214.21c20.376,0,36.895,16.598,36.895,37.072v183.602c0,20.474-16.518,37.072-36.895,37.072h-214.21
				c-20.376,0-36.895-16.598-36.895-37.072V507.704C2144.644,487.229,2161.163,470.632,2181.539,470.632z"/>
			<path style="fill:#EAEAEA;stroke:#231815;stroke-width:10.6805;stroke-linecap:round;stroke-linejoin:round;" d="
				M1376.065,555.642h214.21c20.376,0,36.895,16.598,36.895,37.072v183.602c0,20.474-16.518,37.072-36.895,37.072h-214.21
				c-20.376,0-36.894-16.598-36.894-37.072V592.714C1339.17,572.239,1355.688,555.642,1376.065,555.642z"/>
			<path style="fill:#EAEAEA;stroke:#231815;stroke-width:10.6805;stroke-linecap:round;stroke-linejoin:round;" d="M614.323,711.6
				h214.21c20.376,0,36.894,16.598,36.894,37.072v183.602c0,20.474-16.518,37.072-36.894,37.072h-214.21
				c-20.376,0-36.894-16.598-36.894-37.072V748.672C577.429,728.197,593.947,711.6,614.323,711.6z"/>
			<path style="fill:#EAEAEA;stroke:#231815;stroke-width:10.6805;stroke-linecap:round;stroke-linejoin:round;" d="
				M3165.759,726.94h-214.21c-20.376,0-36.895-16.598-36.895-37.072V506.266c0-20.474,16.518-37.072,36.895-37.072h214.21
				c20.376,0,36.895,16.598,36.895,37.072v183.602C3202.654,710.342,3186.135,726.94,3165.759,726.94z"/>
			<path style="fill:#EAEAEA;stroke:#231815;stroke-width:10.6805;stroke-linecap:round;stroke-linejoin:round;" d="
				M3970.279,865.001H3756.07c-20.376,0-36.895-16.598-36.895-37.072V644.327c0-20.474,16.518-37.072,36.895-37.072h214.209
				c20.376,0,36.895,16.598,36.895,37.072v183.602C4007.174,848.403,3990.656,865.001,3970.279,865.001z"/>
			<path style="fill:#EAEAEA;stroke:#231815;stroke-width:10.6805;stroke-linecap:round;stroke-linejoin:round;" d="
				M4744.743,990.439h-214.21c-20.376,0-36.895-16.598-36.895-37.072V769.764c0-20.474,16.519-37.072,36.895-37.072h214.21
				c20.376,0,36.895,16.598,36.895,37.072v183.602C4781.637,973.841,4765.119,990.439,4744.743,990.439z"/>
			<path style="fill:none;stroke:#231815;stroke-width:21.3609;stroke-linecap:round;stroke-linejoin:round;" d="M-531.47,1283.02
				C43.732,997.15,1178.712,620.518,2653.85,609.652c1551.472-11.505,2706.17,396.447,3285.507,687.43"/>
			
				<path style="opacity:0.8;fill:#FFFFFF;stroke:#D6D6D6;stroke-width:15.941;stroke-linecap:round;stroke-linejoin:round;enable-background:new    ;" d="
				M2453.317,462.163c-6.202-6.551-13.517-11.984-22.423-15.979c-20.037-8.789-43.256-10.067-65.201-10.067h-146.305
				c-72.835,0-131.833,58.005-131.833,129.432v98.592c0,27.964,9.542,57.685,28.307,80.376
				c25.762,31.319,68.7,35.474,108.775,35.794c36.735,0.32,73.47,0,110.365,0h21.469c72.835,0,131.834-58.005,131.834-129.432
				c0-59.922,11.291-128.314-27.989-180.566c-2.226-2.876-4.453-5.753-6.997-8.309V462.163z M2431.848,651.038
				c0,40.907-33.873,74.144-75.538,74.144c-41.665,0-83.33,0-124.996,0c-24.013,0-49.299-0.639-67.587-16.459
				c-13.04-11.345-19.878-28.124-19.878-44.422v-98.592c0-40.907,33.873-74.144,75.538-74.144c20.674,0,41.347,0,62.021,0
				c33.873,0,69.018-2.876,102.414,3.515c31.806,6.072,48.026,28.603,48.026,57.366V651.038z"/>
			<path style="fill:#EAEAEA;stroke:#231815;stroke-width:10.6805;stroke-linecap:round;stroke-linejoin:round;" d="
				M2224.476,654.554h118.157c26.173,0,47.39,21.319,47.39,47.618l0,0c0,26.299-21.217,47.618-47.39,47.618h-118.157
				c-26.173,0-47.39-21.32-47.39-47.618l0,0C2177.086,675.873,2198.303,654.554,2224.476,654.554z"/>
			
				<path style="opacity:0.8;fill:#FFFFFF;stroke:#D6D6D6;stroke-width:15.941;stroke-linecap:round;stroke-linejoin:round;enable-background:new    ;" d="
				M1647.843,547.173c-6.202-6.552-13.517-11.984-22.423-15.979c-20.037-8.789-43.255-10.067-65.201-10.067h-146.305
				c-72.835,0-131.834,58.005-131.834,129.432c0,0,0,98.273,0,98.592c0,27.964,9.542,57.685,28.307,80.376
				c25.762,31.319,68.7,35.474,108.775,35.794c36.735,0.32,73.471,0,110.365,0h21.469c72.835,0,131.834-58.005,131.834-129.432
				c0-59.922,11.291-128.314-27.989-180.566c-2.226-2.876-4.453-5.753-6.997-8.309V547.173z M1626.374,736.048
				c0,40.907-33.873,74.144-75.538,74.144c-41.665,0-83.33,0-124.996,0c-24.013,0-49.299-0.639-67.587-16.459
				c-13.04-11.345-19.879-28.124-19.879-44.422v-98.592c0-40.907,33.873-74.144,75.538-74.144c20.674,0,41.347,0,62.021,0
				c33.873,0,69.018-2.876,102.414,3.515c31.806,6.072,48.026,28.603,48.026,57.366
				C1626.374,637.456,1626.374,736.048,1626.374,736.048z"/>
			<path style="fill:#EAEAEA;stroke:#231815;stroke-width:10.6805;stroke-linecap:round;stroke-linejoin:round;" d="
				M1537.16,834.321c0,0-0.477,0-0.795,0c-30.215,1.278-60.43,1.598-90.487,0.639c-18.765-0.479-50.094,7.67-60.589-13.742
				c-4.135-8.469,0.954-11.825,2.385-19.175c1.431-6.871-0.477-16.938-1.272-23.969c-2.544-24.129,7.315-38.51,32.76-38.51h117.998
				c26.239,0,47.39,21.412,47.39,47.618C1584.549,814.826,1562.604,832.883,1537.16,834.321L1537.16,834.321z"/>
			
				<path style="opacity:0.8;fill:#FFFFFF;stroke:#D6D6D6;stroke-width:15.941;stroke-linecap:round;stroke-linejoin:round;enable-background:new    ;" d="
				M876.718,703.29c-5.725-6.552-12.563-11.984-20.833-15.979c-18.765-8.789-40.234-10.067-60.748-10.067H659.01
				c-67.746,0-122.769,58.005-122.769,129.432v98.592c0,27.964,8.906,57.685,26.24,80.376c24.013,31.32,63.929,35.474,101.3,35.794
				c34.191,0.32,68.382,0,102.732,0h20.037c67.746,0,122.769-58.005,122.769-129.432c0-59.922,10.496-128.314-25.922-180.566
				c-2.067-2.876-4.135-5.753-6.52-8.309L876.718,703.29z M856.84,892.166c0,40.907-31.487,74.144-70.29,74.144
				c-38.803,0-44.369,0-83.012,0c-22.264,0-45.8-0.639-62.975-16.459c-12.245-11.345-18.606-28.124-18.606-44.422v-98.592
				c0-40.907,31.487-74.144,70.29-74.144c19.242,0,5.248,0,24.49,0c31.487,0,64.247-2.876,95.417,3.516
				c29.579,6.072,44.687,28.603,44.687,57.366V892.166z"/>
			<path style="fill:#EAEAEA;stroke:#231815;stroke-width:10.6805;stroke-linecap:round;stroke-linejoin:round;" d="
				M792.434,1008.815c0,0-0.477,0-0.795,0c-30.215,1.278-60.43,1.598-90.487,0.639c-18.765-0.479-50.094,7.67-60.589-13.742
				c-4.135-8.469,0.954-11.825,2.385-19.175c1.431-6.871-0.477-16.938-1.272-23.969c-2.544-24.129,7.315-38.51,32.76-38.51h117.998
				c26.24,0,47.39,21.412,47.39,47.618C839.824,989.32,817.878,1007.377,792.434,1008.815z"/>
			
				<path style="opacity:0.8;fill:#FFFFFF;stroke:#D6D6D6;stroke-width:15.941;stroke-linecap:round;stroke-linejoin:round;enable-background:new    ;" d="
				M2886.984,469.194c-39.121,52.252-27.989,120.644-27.989,180.566c0,71.428,59,129.432,131.834,129.432h21.469
				c36.735,0,73.471,0.32,110.365,0c40.075-0.32,83.012-4.474,108.775-35.794c18.606-22.691,28.307-52.412,28.307-80.376
				c0-0.479,0-98.592,0-98.592c0-71.427-58.999-129.432-131.834-129.432h-146.305c-21.946,0-45.164,1.278-65.201,10.067
				c-8.906,3.835-16.221,9.428-22.423,15.979c-2.544,2.557-4.771,5.433-6.997,8.309V469.194z M2915.45,551.008
				c0-28.763,16.38-51.294,48.026-57.366c33.396-6.392,68.541-3.515,102.414-3.515c20.674,0,41.347,0,62.021,0
				c41.665,0,75.538,33.237,75.538,74.144v98.592c0,16.299-6.838,33.077-19.878,44.422c-18.447,15.82-43.733,16.459-67.587,16.459
				c-41.665,0-83.331,0-124.996,0s-75.538-33.237-75.538-74.144C2915.45,649.6,2915.45,551.008,2915.45,551.008z"/>
			<path style="fill:#EAEAEA;stroke:#231815;stroke-width:10.6805;stroke-linecap:round;stroke-linejoin:round;" d="
				M3122.823,748.512h-118.158c-26.173,0-47.39-21.32-47.39-47.618l0,0c0-26.299,21.217-47.618,47.39-47.618h118.158
				c26.173,0,47.39,21.319,47.39,47.618l0,0C3170.213,727.192,3148.995,748.512,3122.823,748.512z"/>
			
				<path style="opacity:0.8;fill:#FFFFFF;stroke:#D6D6D6;stroke-width:15.941;stroke-linecap:round;stroke-linejoin:round;enable-background:new    ;" d="
				M3691.504,607.255c-39.121,52.252-27.989,120.644-27.989,180.566c0,71.427,58.999,129.432,131.834,129.432h21.469
				c36.735,0,73.471,0.32,110.365,0c40.075-0.32,83.012-4.474,108.775-35.794c18.606-22.691,28.307-52.412,28.307-80.376v-98.592
				c0-71.427-58.999-129.432-131.834-129.432h-146.305c-21.946,0-45.164,1.278-65.201,10.067
				c-8.906,3.835-16.221,9.428-22.423,15.979c-2.544,2.557-4.771,5.433-6.997,8.309L3691.504,607.255z M3719.97,689.069
				c0-28.763,16.38-51.293,48.026-57.366c33.396-6.392,68.541-3.516,102.414-3.516c20.673,0,41.347,0,62.021,0
				c41.665,0,75.538,33.237,75.538,74.144v98.592c0,16.299-6.838,33.077-19.879,44.422c-18.447,15.82-43.732,16.459-67.586,16.459
				c-41.665,0-83.33,0-124.996,0c-41.665,0-75.538-33.237-75.538-74.144V689.069z"/>
			<path style="fill:#EAEAEA;stroke:#231815;stroke-width:10.6805;stroke-linecap:round;stroke-linejoin:round;" d="
				M3809.344,886.094c0,0,0.477,0,0.795,0c30.215,1.278,60.43,1.598,90.487,0.639c18.765-0.479,50.094,7.67,60.589-13.742
				c4.135-8.469-0.954-11.825-2.385-19.175c-1.431-6.871,0.477-16.938,1.272-23.969c2.545-24.129-7.315-38.51-32.76-38.51h-117.999
				c-26.24,0-47.39,21.412-47.39,47.618C3761.953,866.599,3783.899,884.656,3809.344,886.094L3809.344,886.094z"/>
			
				<path style="opacity:0.8;fill:#FFFFFF;stroke:#D6D6D6;stroke-width:15.941;stroke-linecap:round;stroke-linejoin:round;enable-background:new    ;" d="
				M4475.987,732.692c-36.417,52.252-25.921,120.644-25.921,180.566c0,71.427,54.865,129.432,122.769,129.432h20.038
				c34.191,0,68.382,0.319,102.732,0c37.372-0.32,77.287-4.474,101.3-35.794c17.334-22.691,26.24-52.412,26.24-80.376v-98.592
				c0-71.428-54.865-129.432-122.77-129.432h-136.127c-20.515,0-41.983,1.278-60.749,10.067c-8.27,3.835-15.108,9.428-20.833,15.979
				c-2.385,2.557-4.453,5.433-6.521,8.309L4475.987,732.692z M4502.386,814.506c0-28.763,15.108-51.293,44.687-57.366
				c31.169-6.392,63.77-3.515,95.417-3.515c19.242,0,5.248,0,24.49,0c38.803,0,70.291,33.237,70.291,74.144v98.592
				c0,16.299-6.361,33.077-18.606,44.422c-17.175,15.82-40.711,16.459-62.975,16.459c-38.803,0-44.369,0-83.013,0
				c-38.802,0-70.29-33.237-70.29-74.144V814.506z"/>
			<path style="fill:#EAEAEA;stroke:#231815;stroke-width:10.6805;stroke-linecap:round;stroke-linejoin:round;" d="
				M4566.792,1029.907c0,0,0.477,0,0.795,0c30.215,1.278,60.43,1.598,90.487,0.639c18.765-0.479,50.094,7.67,60.589-13.742
				c4.135-8.469-0.954-11.825-2.385-19.175c-1.431-6.871,0.477-16.938,1.272-23.969c2.544-24.129-7.315-38.51-32.76-38.51h-117.999
				c-26.239,0-47.39,21.412-47.39,47.618C4519.401,1010.413,4541.347,1028.469,4566.792,1029.907L4566.792,1029.907z"/>
			<path style="fill:#EAEAEA;stroke:#231815;stroke-width:10.6805;stroke-linecap:round;stroke-linejoin:round;" d="
				M770.329,862.924H709.74c-16.062,0-33.078-5.593-43.096-18.856c-10.973-14.381-7.315-31.16-7.156-48.417
				c0.318-18.216-2.544-36.433-8.587-53.531c-6.361-18.057-19.242-30.68-27.353-47.299c-12.563-25.567,47.549-26.206,59.953-26.526
				c20.992-0.479,42.142,0.479,63.293-0.479c23.059-0.959,62.339-7.191,80.786,9.588c17.493,15.82,15.903,41.227,16.062,62.958
				C843.8,786.543,829.805,862.924,770.329,862.924z"/>
			<path style="fill:#EAEAEA;stroke:#231815;stroke-width:10.6805;stroke-linecap:round;stroke-linejoin:round;" d="
				M2313.85,621.956h-60.589c-22.423,0-41.824-11.026-47.231-26.685l-42.619-124.639c-7.633-22.051,15.585-43.464,47.231-43.464
				h146.146c31.646,0,54.706,21.412,47.231,43.464L2361.24,595.27c-5.407,15.66-24.808,26.685-47.231,26.685H2313.85z"/>
			<path style="fill:#EAEAEA;stroke:#231815;stroke-width:10.6805;stroke-linecap:round;stroke-linejoin:round;" d="
				M1508.375,706.966h-60.589c-16.062,0-33.078-5.593-43.096-18.856c-10.973-14.381-7.315-31.16-7.156-48.417
				c0.318-18.216-2.545-36.433-8.587-53.531c-6.361-18.057-19.242-30.68-27.353-47.299c-12.563-25.567,47.549-26.206,59.953-26.526
				c20.992-0.479,42.142,0.479,63.293-0.479c23.059-0.959,62.339-7.191,80.786,9.588c17.493,15.82,15.903,41.227,16.062,62.958
				C1581.846,630.585,1567.852,706.966,1508.375,706.966z"/>
			<path style="fill:#EAEAEA;stroke:#231815;stroke-width:10.6805;stroke-linecap:round;stroke-linejoin:round;" d="
				M3033.449,620.518h60.59c22.423,0,41.824-11.026,47.231-26.685l42.619-124.639c7.633-22.051-15.584-43.464-47.231-43.464
				h-146.146c-31.646,0-54.706,21.412-47.231,43.464l42.779,124.639c5.407,15.66,24.808,26.685,47.231,26.685H3033.449z"/>
			<path style="fill:#EAEAEA;stroke:#231815;stroke-width:10.6805;stroke-linecap:round;stroke-linejoin:round;" d="
				M3837.969,758.739h60.589c16.062,0,33.078-5.593,43.096-18.856c10.973-14.381,7.315-31.16,7.156-48.417
				c-0.318-18.216,2.544-36.433,8.588-53.531c6.361-18.057,19.242-30.68,27.353-47.299c12.563-25.567-47.549-26.206-59.953-26.526
				c-20.992-0.479-42.142,0.479-63.293-0.479c-23.059-0.959-62.339-7.191-80.786,9.587c-17.493,15.82-15.903,41.227-16.062,62.959
				C3764.498,682.357,3778.493,758.739,3837.969,758.739z"/>
			<path style="fill:#EAEAEA;stroke:#231815;stroke-width:10.6805;stroke-linecap:round;stroke-linejoin:round;" d="
				M4588.737,884.016h60.589c16.062,0,33.078-5.593,43.097-18.856c10.973-14.381,7.315-31.16,7.156-48.417
				c-0.318-18.216,2.544-36.433,8.587-53.531c6.361-18.057,19.242-30.68,27.353-47.299c12.563-25.567-47.549-26.206-59.953-26.526
				c-20.992-0.479-42.142,0.479-63.293-0.479c-23.06-0.959-62.339-7.191-80.786,9.588c-17.493,15.82-15.903,41.227-16.062,62.958
				C4515.267,807.635,4529.261,884.016,4588.737,884.016z"/>
		</g>
	</g>
</g>
</svg>
