<svg id="Capa_1" enable-background="new 0 0 618.511 618.511" viewBox="0 0 618.511 618.511" xmlns="http://www.w3.org/2000/svg"><g><g clip-rule="evenodd" fill-rule="evenodd"><path d="m251.319 149.029c-.801-1.719-1.55-3.464-2.24-5.235-4.004-10.261-6.198-21.42-6.198-33.094 0-50.314 40.854-91.168 91.168-91.168 50.321 0 91.175 40.854 91.175 91.168 0 50.321-40.854 91.175-91.175 91.175-11.029 0-21.602-1.96-31.388-5.56-5.059-1.856-10.677.742-12.539 5.801-1.856 5.059.742 10.677 5.801 12.533 11.888 4.369 24.734 6.758 38.126 6.758 61.102 0 110.707-49.605 110.707-110.707.001-61.095-49.604-110.7-110.706-110.7-61.096 0-110.7 49.605-110.7 110.7 0 14.174 2.669 27.729 7.533 40.19.846 2.155 1.751 4.284 2.721 6.367 2.272 4.889 8.086 7.012 12.969 4.746 4.889-2.271 7.012-8.085 4.746-12.974z"/><path d="m218.232 395.124v213.621c0 5.391 4.369 9.766 9.766 9.766h212.11c5.391 0 9.766-4.375 9.766-9.766v-198.243c0-5.391-4.375-9.766-9.766-9.766s-9.766 4.375-9.766 9.766v188.476h-192.578v-203.854c0-5.391-4.375-9.766-9.766-9.766s-9.766 4.375-9.766 9.766zm253.889-137.075c-51.753-5.326-65.653-13.458-102.061-15.274-26.993-1.348-53.107-.918-73.583 1.231-5.358.566-9.252 5.378-8.692 10.736s5.371 9.258 10.73 8.692c19.643-2.064 44.689-2.448 70.575-1.152 36.043 1.797 49.8 9.929 101.039 15.196 5.358.547 10.157-3.353 10.71-8.718.553-5.366-3.353-10.164-8.718-10.711z"/><path d="m146.68 344.289c-12.976 12.976-21.134 21.134-21.134 21.134-.384.378-.729.794-1.042 1.23l-57.202 80.192c-1.673 2.344-4.284 3.828-7.142 4.063-2.865.241-5.684-.794-7.715-2.826l-24.467-24.467c-2.031-2.025-3.067-4.85-2.826-7.709.234-2.865 1.725-5.475 4.063-7.142l11.159-7.963c4.388-3.132 5.404-9.232 2.279-13.62-3.132-4.388-9.239-5.41-13.627-2.279l-11.153 7.956c-7.018 5.007-11.472 12.839-12.188 21.427-.71 8.588 2.389 17.051 8.483 23.145 7.67 7.67 16.791 16.791 24.46 24.46 6.094 6.094 14.558 9.2 23.145 8.483s16.42-5.169 21.427-12.181l56.727-79.534c.007 0 20.561-20.561 20.561-20.561 3.815-3.809 3.815-10 0-13.809-3.808-3.814-9.999-3.814-13.808.001zm-36.036 6.224s7.683-7.689 23.835-23.835c3.809-3.815 3.809-10 0-13.816-3.809-3.809-10-3.809-13.809 0-16.153 16.153-23.842 23.842-23.842 23.842-3.809 3.809-3.809 10 0 13.809 3.815 3.809 10 3.809 13.816 0zm57.274-57.274c42.827-42.827 98.206-98.206 123.741-123.748 1.895-1.888 4.46-2.949 7.129-2.949 2.676 0 5.241 1.061 7.129 2.949l.651.651c1.888 1.888 2.949 4.453 2.949 7.129 0 2.669-1.061 5.235-2.949 7.129l-110.804 110.799c-3.809 3.815-3.809 10 0 13.816 3.815 3.809 10 3.809 13.816 0 40.47-40.477 87.77-87.776 110.798-110.805 5.554-5.554 8.672-13.086 8.672-20.938 0-7.858-3.119-15.391-8.672-20.945l-.645-.645c-5.554-5.554-13.086-8.672-20.945-8.672-7.852 0-15.385 3.119-20.938 8.672-25.535 25.535-80.921 80.921-123.741 123.741-3.815 3.815-3.815 10 0 13.816 3.808 3.809 10 3.809 13.809 0z"/><path d="m323.587 359.198-136.906-77.34c-20.762-11.732-47.137-4.401-58.869 16.361s-4.395 47.144 16.368 58.876l161.757 91.39c14.004 7.91 31.147 7.344 44.533-1.217.775-.495 3.594-2.415 5.97-3.893 17.266-10.71 89.404-55.458 122.582-76.044 20.43-12.676 33.725-34.207 35.913-58.146 0 0 0 0 0-.007 1.178-12.917-1.549-25.658-11.114-35.223-9.323-9.317-20.229-15.658-32.469-15.951-5.391-.124-9.864 4.147-9.994 9.538-.124 5.391 4.147 9.864 9.538 9.994 7.331.169 13.529 4.649 19.115 10.235 5.274 5.274 6.12 12.507 5.475 19.636-1.634 17.839-11.537 33.881-26.765 43.328l-122.576 76.044c-2.474 1.53-5.397 3.522-6.205 4.037-7.331 4.688-16.726 5-24.395.664l-161.763-91.39c-11.374-6.426-15.391-20.886-8.965-32.26s20.88-15.398 32.26-8.965l142.472 80.491c2.904 1.641 4.85 1.289 4.85 1.289l5.938-2.012 66.285-50.776c4.284-3.275 5.091-9.408 1.816-13.692-3.275-4.277-9.414-5.091-13.692-1.81z"/><path d="m35.609 328.371c-12.943 12.826-20.287 28.25-21.453 41.31-.944 10.599 2.005 19.87 8.451 26.375s15.684 9.538 26.29 8.698c13.073-1.042 28.562-8.236 41.512-21.062 12.943-12.819 20.287-28.243 21.453-41.303.944-10.599-2.005-19.87-8.451-26.375-6.439-6.504-15.684-9.545-26.29-8.698-13.067 1.041-28.563 8.235-41.512 21.055zm13.75 13.88c9.213-9.134 20.007-14.727 29.311-15.469 4.317-.339 8.242.332 10.866 2.975 2.624 2.65 3.255 6.582 2.871 10.899-.827 9.297-6.524 20.033-15.743 29.161-9.219 9.134-20.007 14.727-29.317 15.463-4.31.345-8.242-.326-10.866-2.969-2.617-2.65-3.255-6.582-2.871-10.899.833-9.297 6.53-20.033 15.749-29.161z"/><path d="m114.049 34.435 29.63 29.63c3.809 3.809 10 3.809 13.809 0 3.815-3.815 3.815-10 0-13.816l-35.183-35.183c-4.655-4.655-11.661-6.048-17.741-3.529-6.081 2.52-10.046 8.451-10.046 15.04v114.053c0 5.391 4.375 9.766 9.766 9.766s9.766-4.375 9.766-9.766z"/><path d="m566.629 91.24 29.63 29.63c3.809 3.809 10 3.809 13.809 0s3.809-10 0-13.809l-35.19-35.19c-4.655-4.655-11.654-6.048-17.735-3.529s-10.046 8.457-10.046 15.04v114.053c0 5.391 4.375 9.766 9.766 9.766 5.384 0 9.766-4.375 9.766-9.766z"/><path d="m114.049 110.284c0-5.391-4.375-9.766-9.766-9.766h-30.431c-10.612 0-20.795 4.219-28.302 11.726-7.507 7.5-11.719 17.683-11.719 28.302v17.403c0 12.585 10.202 22.787 22.787 22.787h17.403c10.619 0 20.801-4.212 28.302-11.719 7.507-7.507 11.726-17.689 11.726-28.302 0-15.203 0-30.431 0-30.431zm-19.532 9.766v20.665c0 5.436-2.162 10.645-6.003 14.486-3.841 3.848-9.056 6.003-14.493 6.003h-17.403c-1.797 0-3.255-1.458-3.255-3.255v-17.403c0-5.436 2.155-10.651 6.003-14.493 3.841-3.841 9.05-6.003 14.486-6.003z"/><path d="m566.629 167.089c0-5.391-4.375-9.766-9.766-9.766h-30.431c-10.619 0-20.795 4.219-28.302 11.726s-11.726 17.683-11.726 28.302v17.409c0 12.585 10.202 22.787 22.787 22.787h17.409c10.612 0 20.795-4.219 28.302-11.726s11.726-17.689 11.726-28.302c.001-15.202.001-30.43.001-30.43zm-19.532 9.766v20.665c0 5.436-2.162 10.645-6.003 14.493-3.848 3.841-9.056 6.003-14.493 6.003h-17.409c-1.797 0-3.255-1.458-3.255-3.255v-17.411c0-5.436 2.162-10.651 6.003-14.493s9.056-6.003 14.493-6.003h20.664z"/></g></g><g/><g/><g/><g/><g/><g/><g/><g/><g/><g/><g/><g/><g/><g/><g/></svg>