<svg viewBox="0 0 512 512" xmlns="http://www.w3.org/2000/svg"><g id="Layer_2" data-name="Layer 2"><g id="Layer_2_copy_18" data-name="Layer 2 copy 18"><g id="_44" data-name="44"><path d="m355.18 157.18a30.29 30.29 0 0 0 -13.3 3.16 28.93 28.93 0 0 0 -14.27 14.88 21 21 0 0 0 .25 17.38c3.58 7.28 11.55 11.8 20.8 11.8a30.43 30.43 0 0 0 13.3-3.16c13.27-6.51 19.55-21 14-32.26-3.56-7.28-11.53-11.8-20.78-11.8z"/><path d="m256 0c-141.38 0-256 114.62-256 256s114.62 256 256 256 256-114.62 256-256-114.62-256-256-256zm93.12 310.68-29.12 3.84a19.16 19.16 0 0 1 -19-9.22 19.12 19.12 0 0 1 12.06-28.3l1.68-.4-12.62-20.6-25.94 29.69s31.37 34.26 41.1 63a169 169 0 0 1 8.37 51.74v.11a20.51 20.51 0 0 1 -20.53 20.46h-.63c-11.16-.33-19.9-9.78-19.9-20.95v-15.88a72 72 0 0 0 -36.15-62.47l-24.85-14.28-8 2.47a75.39 75.39 0 0 0 -53 72v19.82a19.29 19.29 0 1 1 -38.53-1.33l2.51-36.18a82.11 82.11 0 0 1 41.63-65.89l71.51-82.73s9.58-63.21 94.53-121.38a18.22 18.22 0 0 1 21.05 29.74c-20.42 14.89-52.76 41.26-64.4 66.4 0 0 34.36 25.24 44.17 51.18l27.13 40a18.76 18.76 0 0 1 -13.07 29.16zm17.25-100.46a40.27 40.27 0 0 1 -17.71 4.18c-12.66 0-24.32-6.28-29.77-17.39-8-16.26.34-36.69 18.58-45.65a40.1 40.1 0 0 1 17.71-4.18c12.65 0 24.31 6.28 29.77 17.39 7.98 16.25-.34 36.69-18.58 45.65z"/><path d="m326.79 247.13-.65-1-.42-1.09c-8.64-22.83-40.42-46.43-40.74-46.67l-6.58-4.84 3.43-7.42c12.13-26.2 43.45-52.67 67.58-70.27a8.2 8.2 0 0 0 1-12.45 8.22 8.22 0 0 0 -10.48-1c-41.77 28.6-64.1 58.28-75.48 78.13-12.32 21.48-14.83 36.48-14.85 36.6l-.43 2.85-1.88 2.14-71.51 82.74-1.14 1.31-1.52.86a72.14 72.14 0 0 0 -36.56 57.87l-2.56 36.18a9.29 9.29 0 1 0 18.56.64v-19.82a85 85 0 0 1 60.08-81.55l7.95-2.47 4.17-1.29 3.78 2.17 24.88 14.25a82.25 82.25 0 0 1 41.17 71.14v15.86a10.82 10.82 0 0 0 10.2 11h.33a10.51 10.51 0 0 0 10.53-10.47v-.08c-.06-9.69-1.16-28.85-7.84-48.56-8.93-26.37-38.71-59.12-39-59.45l-6-6.6 5.89-6.73 25.94-29.69 8.94-10.24 7.11 11.59 12.62 20.57 7.23 11.79-13.54 3.18-1.68.39a9.11 9.11 0 0 0 2.09 18 9.39 9.39 0 0 0 1.19-.07l29.17-3.84a8.76 8.76 0 0 0 6.11-13.6z"/></g></g></g></svg>