<svg height="512" viewBox="0 0 60 60" width="512" xmlns="http://www.w3.org/2000/svg"><g id="Page-1" fill="none" fill-rule="evenodd"><g id="018---Rating" fill="rgb(0,0,0)" fill-rule="nonzero" transform="translate(-1)"><path id="Shape" d="m36.734 21.028c.0555192-1.230831.3028295-2.4454522.733-3.6.3079961-.775124.488008-1.5951407.533-2.428v-2c-.0047557-1.5990337-.6457041-3.13043136-1.7813576-4.25614112-1.1356536-1.12570977-2.6726287-1.75316579-4.2716424-1.74385888-1.5878058-.00528667-2.9026391 1.23181599-2.994 2.817-.0406217 3.1727477-1.0216869 6.2621112-2.819 8.877-.8026081 1.2477704-1.4929789 2.5642604-2.063 3.934-.7712987 2.1938204-2.9095934 3.6051768-5.23 3.452-.3977605-1.2346011-1.5439209-2.0737471-2.841-2.08h-3c-1.6568542 0-3 1.3431458-3 3v16c0 1.6568542 1.3431458 3 3 3h3c1.2440526-.00175 2.3579474-.7711331 2.8-1.934 1.4076112.2862031 2.7762124.738711 4.077 1.348 3.4824233 1.6407591 7.2739353 2.5222524 11.123 2.586 2.4991135-.0203312 4.9783558-.446203 7.341-1.261 1.0162027.868121 2.3237213 1.3187307 3.659 1.261 2.484 0 5-1.374 5-4-.0049562-.9384798-.3191738-1.8491484-.894-2.591 1.2689468-.6422125 2.0190417-1.992304 1.894-3.409-.0064599-.6622909-.1805379-1.3121592-.506-1.889 1.0309649-.6854674 1.6078458-1.8771517 1.506-3.111-.0671181-1.2215975-.4901609-2.3968708-1.217-3.381.7323089-.680434 1.1691459-1.6205128 1.217-2.619 0-1.018 0-3.721-3.685-4.949-2.051-.681-7.238-.934-11.581-1.023zm-20.734 22.972h-3c-.5522847 0-1-.4477153-1-1v-16c0-.5522847.4477153-1 1-1h3c.5522847 0 1 .4477153 1 1v16c0 .5522847-.4477153 1-1 1zm34-17c-.0905531.6715092-.5050834 1.2557391-1.109 1.563-.5811461.3088638-1.2332625.4595645-1.891.437-2.757 0-5-.9-5-2 0-.5522847-.4477153-1-1-1s-1 .4477153-1 1c0 2.763 3.516 4 7 4 .7018062.0055272 1.3994341-.1084333 2.063-.337.5294656.6733242.8546611 1.4844042.937 2.337 0 1.069-.294 1.458-1.317 1.737-.8795072.2014236-1.7811208.289804-2.683.263-3.317 0-5-.673-5-2 0-.5522847-.4477153-1-1-1s-1 .4477153-1 1c0 2.654 2.355 4 7 4 .8682333.0106963 1.7356849-.0562367 2.592-.2.2625016.3451881.405695.7663451.408 1.2 0 1.137-.3 1.749-1.971 1.94-.3411978.0437932-.6850247.0638414-1.029.06-3.047 0-3.405-.047-4.1-1.447-.2468713-.4942949-.8477051-.6948713-1.342-.448s-.6948713.8477051-.448 1.342c1.272 2.553 2.815 2.553 5.89 2.553.339 0 .63-.016.9-.039.6558956.4785666 1.060226 1.228048 1.1 2.039 0 1.582-1.962 2-3 2-.9814039.0921495-1.9470773-.2942687-2.594-1.038-.2306261-.271541-.372342-.6073311-.406-.962 0-.5522847-.4477153-1-1-1s-1 .4477153-1 1c.0063993.3443307.0695816.6852447.187 1.009-2.0017358.6354987-4.0869185.969492-6.187.991-3.5883114-.0610357-7.1217883-.8910379-10.362-2.434-1.4758971-.6932447-3.0346133-1.1943326-4.638-1.491v-13.983c3.0833378.0769498 5.8718119-1.8225448 6.929-4.72.5296508-1.266465 1.1697895-2.4838329 1.913-3.638 1.9629445-2.9006631 3.0428653-6.308197 3.109-9.81.040566-.54184115.5063717-.95214092 1.049-.924 2.209139 0 4 1.790861 4 4v2c-.0515835.6182766-.1965627 1.2251663-.43 1.8-.6216105 1.6540519-.9025665 3.4166601-.826 5.182v.017c0 .006.008.031.009.048.0365118.7232058.1257488 1.4427832.267 2.153.844 4.226-1.484 5.908-1.575 5.972-.4595009.306518-.583518.9274991-.277 1.387.3065181.4595009.9274991.583518 1.387.277.145-.1 3.544-2.436 2.425-8.028-.054-.271-.087-.521-.123-.773 5.495.118 9.411.448 10.827.918 2.316.768 2.316 2.085 2.316 3.047z"/><path id="Shape" d="m31 0c-11.5822218-.00234017-22.1307788 6.66408871-27.09965207 17.1263144-4.96887328 10.4622256-3.47000448 22.8503942 3.85065207 31.8256856-1.092 4.279-5.7 5.028-5.9 5.058-.31762079.0463177-.59370282.2422863-.74221796.5268414-.14851514.284555-.15140982.6231057-.00778204.9101586.099.186 2.356 4.553 8.899 4.553 2.9501621-.0653905 5.8001628-1.0826216 8.125-2.9 4.019556 1.9209062 8.4200516 2.9120858 12.875 2.9 16.5685423-.0000002 29.9999996-13.4314577 29.9999996-30s-13.4314573-29.99999975-29.9999996-30zm0 58c-4.3576671.0101972-8.6563282-1.0073387-12.547-2.97-.3506713-.1759567-.7718402-.1305941-1.077.116-2.0639161 1.7601921-4.6648413 2.7665696-7.376 2.854-2.34736371.1199128-4.63730728-.7507881-6.312-2.4 3.11598397-.9588492 5.46352857-3.5370486 6.127-6.729.05545591-.2950473-.02457874-.5993993-.218-.829-8.46105737-10.0432981-8.80373014-24.6180217-.82402586-35.0478658 7.97970426-10.42984416 22.13671196-13.91109786 34.04338346-8.37137749 11.9066716 5.53972039 18.3623009 18.61124829 15.5238644 31.43312829-2.8384366 12.82188-14.2079214 21.9473832-27.340222 21.944115z"/><path id="Shape" d="m45 14c.5522847 0 1-.4477153 1-1v-1c0-.5522847-.4477153-1-1-1s-1 .4477153-1 1v1c0 .5522847.4477153 1 1 1z"/><path id="Shape" d="m47 16h1c.5522847 0 1-.4477153 1-1s-.4477153-1-1-1h-1c-.5522847 0-1 .4477153-1 1s.4477153 1 1 1z"/><path id="Shape" d="m45 16c-.5522847 0-1 .4477153-1 1v1c0 .5522847.4477153 1 1 1s1-.4477153 1-1v-1c0-.5522847-.4477153-1-1-1z"/><path id="Shape" d="m42 16h1c.5522847 0 1-.4477153 1-1s-.4477153-1-1-1h-1c-.5522847 0-1 .4477153-1 1s.4477153 1 1 1z"/><path id="Shape" d="m19 17c.5522847 0 1-.4477153 1-1v-1c0-.5522847-.4477153-1-1-1s-1 .4477153-1 1v1c0 .5522847.4477153 1 1 1z"/><path id="Shape" d="m21 19h1c.5522847 0 1-.4477153 1-1s-.4477153-1-1-1h-1c-.5522847 0-1 .4477153-1 1s.4477153 1 1 1z"/><path id="Shape" d="m19 19c-.5522847 0-1 .4477153-1 1v1c0 .5522847.4477153 1 1 1s1-.4477153 1-1v-1c0-.5522847-.4477153-1-1-1z"/><path id="Shape" d="m16 19h1c.5522847 0 1-.4477153 1-1s-.4477153-1-1-1h-1c-.5522847 0-1 .4477153-1 1s.4477153 1 1 1z"/><circle id="Oval" cx="24" cy="13" r="1"/><circle id="Oval" cx="52" cy="19" r="1"/><circle id="Oval" cx="23" cy="49" r="1"/><circle id="Oval" cx="27" cy="52" r="1"/><circle id="Oval" cx="12" cy="21" r="1"/></g></g></svg>